<svg width="148" height="28" viewBox="0 0 148 28" fill="none" xmlns="http://www.w3.org/2000/svg">
<path d="M38.696 21.216C37.688 21.216 36.808 21.056 36.056 20.736C35.304 20.416 34.712 19.976 34.28 19.416C33.864 18.84 33.64 18.168 33.608 17.4H36.608C36.64 17.816 36.84 18.152 37.208 18.408C37.592 18.664 38.088 18.792 38.696 18.792H39.752C40.488 18.792 41.04 18.648 41.408 18.36C41.776 18.072 41.96 17.68 41.96 17.184C41.96 16.72 41.792 16.36 41.456 16.104C41.136 15.832 40.632 15.656 39.944 15.576L38.312 15.336C36.808 15.128 35.704 14.728 35 14.136C34.296 13.544 33.944 12.656 33.944 11.472C33.944 10.24 34.36 9.288 35.192 8.616C36.024 7.928 37.248 7.584 38.864 7.584H39.776C41.248 7.584 42.424 7.912 43.304 8.568C44.184 9.224 44.656 10.104 44.72 11.208H41.72C41.672 10.856 41.472 10.568 41.12 10.344C40.784 10.12 40.336 10.008 39.776 10.008H38.864C38.176 10.008 37.672 10.136 37.352 10.392C37.048 10.632 36.896 10.992 36.896 11.472C36.896 11.92 37.032 12.256 37.304 12.48C37.576 12.688 38.016 12.84 38.624 12.936L40.328 13.176C41.896 13.4 43.048 13.824 43.784 14.448C44.536 15.056 44.912 15.96 44.912 17.16C44.912 18.44 44.472 19.44 43.592 20.16C42.728 20.864 41.448 21.216 39.752 21.216H38.696ZM50.3746 25.32L52.2226 20.28L47.3026 7.8H50.5906L53.0386 14.544C53.1666 14.912 53.2946 15.36 53.4226 15.888C53.5506 16.4 53.6466 16.824 53.7106 17.16C53.7906 16.824 53.8946 16.4 54.0226 15.888C54.1506 15.36 54.2786 14.912 54.4066 14.544L56.7106 7.8H59.8786L53.5186 25.32H50.3746ZM67.4773 21.216C66.4693 21.216 65.5893 21.056 64.8373 20.736C64.0853 20.416 63.4933 19.976 63.0613 19.416C62.6453 18.84 62.4213 18.168 62.3893 17.4H65.3893C65.4213 17.816 65.6213 18.152 65.9893 18.408C66.3733 18.664 66.8693 18.792 67.4773 18.792H68.5333C69.2693 18.792 69.8213 18.648 70.1893 18.36C70.5573 18.072 70.7413 17.68 70.7413 17.184C70.7413 16.72 70.5733 16.36 70.2373 16.104C69.9173 15.832 69.4133 15.656 68.7253 15.576L67.0933 15.336C65.5893 15.128 64.4853 14.728 63.7812 14.136C63.0773 13.544 62.7253 12.656 62.7253 11.472C62.7253 10.24 63.1413 9.288 63.9733 8.616C64.8053 7.928 66.0293 7.584 67.6453 7.584H68.5573C70.0293 7.584 71.2053 7.912 72.0853 8.568C72.9653 9.224 73.4373 10.104 73.5013 11.208H70.5013C70.4533 10.856 70.2533 10.568 69.9013 10.344C69.5653 10.12 69.1173 10.008 68.5573 10.008H67.6453C66.9573 10.008 66.4533 10.136 66.1333 10.392C65.8293 10.632 65.6773 10.992 65.6773 11.472C65.6773 11.92 65.8133 12.256 66.0853 12.48C66.3573 12.688 66.7973 12.84 67.4053 12.936L69.1093 13.176C70.6773 13.4 71.8293 13.824 72.5653 14.448C73.3173 15.056 73.6933 15.96 73.6933 17.16C73.6933 18.44 73.2533 19.44 72.3733 20.16C71.5093 20.864 70.2293 21.216 68.5333 21.216H67.4773ZM83.8119 21C82.5479 21 81.5559 20.648 80.8359 19.944C80.1319 19.24 79.7799 18.272 79.7799 17.04V10.512H76.2039V7.8H79.7799V4.08H82.8039V7.8H87.8679V10.512H82.8039V17.04C82.8039 17.872 83.2119 18.288 84.0279 18.288H87.6279V21H83.8119ZM96.7865 21.24C95.6665 21.24 94.6905 21.024 93.8585 20.592C93.0265 20.16 92.3785 19.56 91.9145 18.792C91.4665 18.008 91.2425 17.096 91.2425 16.056V12.744C91.2425 11.704 91.4665 10.8 91.9145 10.032C92.3785 9.248 93.0265 8.64 93.8585 8.208C94.6905 7.776 95.6665 7.56 96.7865 7.56C97.8905 7.56 98.8505 7.776 99.6665 8.208C100.499 8.64 101.139 9.248 101.587 10.032C102.051 10.8 102.283 11.704 102.283 12.744V15.12H94.1465V16.056C94.1465 16.984 94.3705 17.688 94.8185 18.168C95.2665 18.632 95.9305 18.864 96.8105 18.864C97.4825 18.864 98.0265 18.752 98.4425 18.528C98.8585 18.288 99.1225 17.944 99.2345 17.496H102.187C101.963 18.632 101.355 19.544 100.363 20.232C99.3865 20.904 98.1945 21.24 96.7865 21.24ZM99.3785 13.44V12.72C99.3785 11.808 99.1625 11.112 98.7305 10.632C98.2985 10.136 97.6505 9.888 96.7865 9.888C95.9225 9.888 95.2665 10.136 94.8185 10.632C94.3705 11.128 94.1465 11.832 94.1465 12.744V13.248L99.5945 13.2L99.3785 13.44ZM105.201 21V7.8H107.649V9.576H108.153L107.745 10.008C107.745 9.272 107.953 8.68 108.369 8.232C108.785 7.784 109.321 7.56 109.977 7.56C110.681 7.56 111.225 7.848 111.609 8.424C112.009 9 112.209 9.776 112.209 10.752L111.681 9.576H112.497L112.185 10.008C112.185 9.272 112.393 8.68 112.809 8.232C113.225 7.784 113.777 7.56 114.465 7.56C115.281 7.56 115.929 7.864 116.409 8.472C116.889 9.08 117.129 9.904 117.129 10.944V21H114.489V11.064C114.489 10.632 114.393 10.296 114.201 10.056C114.009 9.8 113.729 9.672 113.361 9.672C113.009 9.672 112.729 9.792 112.521 10.032C112.329 10.272 112.233 10.616 112.233 11.064V21H110.073V11.064C110.073 10.616 109.977 10.272 109.785 10.032C109.593 9.792 109.313 9.672 108.945 9.672C108.577 9.672 108.297 9.792 108.105 10.032C107.929 10.272 107.841 10.616 107.841 11.064V21H105.201ZM119.016 21L123.864 12.024L119.304 3.48H122.664L124.872 7.872C125.032 8.192 125.176 8.504 125.304 8.808C125.432 9.096 125.528 9.32 125.592 9.48C125.64 9.32 125.728 9.096 125.856 8.808C125.984 8.504 126.128 8.192 126.288 7.872L128.52 3.48H131.784L127.224 11.952L132.072 21H128.712L126.24 16.152C126.08 15.832 125.928 15.52 125.784 15.216C125.656 14.912 125.56 14.672 125.496 14.496C125.432 14.672 125.336 14.912 125.208 15.216C125.08 15.52 124.936 15.832 124.776 16.152L122.28 21H119.016ZM134.534 21V3.48H139.742C140.926 3.48 141.95 3.704 142.814 4.152C143.694 4.6 144.374 5.232 144.854 6.048C145.334 6.864 145.574 7.832 145.574 8.952V15.504C145.574 16.608 145.334 17.576 144.854 18.408C144.374 19.224 143.694 19.864 142.814 20.328C141.95 20.776 140.926 21 139.742 21H134.534ZM137.534 18.24H139.742C140.606 18.24 141.294 18 141.806 17.52C142.318 17.024 142.574 16.352 142.574 15.504V8.952C142.574 8.12 142.318 7.464 141.806 6.984C141.294 6.488 140.606 6.24 139.742 6.24H137.534V18.24Z" fill="black"/>
<path d="M29 0H25H19V4H25V24H19V28H25H29V0Z" fill="black"/>
<path d="M0 0H4H10V4H4V24H10V28H4H0V0Z" fill="black"/>
<path d="M11 14L15 21H7L11 14Z" fill="#D43C31"/>
<path d="M11 14L15 7H7L11 14Z" fill="#D43C31"/>
<path d="M14 14L18 7L22 7L22 13L21 14L22 15L22 21L18 21L14 14Z" fill="#D43C31"/>
<path d="M7 13L8 14L7 15V13Z" fill="#D43C31"/>
</svg>
